<svg width="186" height="92" viewBox="0 0 186 92" fill="none" xmlns="http://www.w3.org/2000/svg">
<path d="M70.1604 34.2105C70.2008 34.2093 70.24 34.2087 70.2786 34.2087C72.066 34.2087 71.7402 35.614 71.7402 35.614C71.3563 36.8643 70.1604 36.4914 70.1604 36.4914H53.4943C51.2177 36.8361 51.0389 39.9994 51.0389 39.9994C50.6531 43.6017 53.4943 44.5606 53.4943 44.5606H70.3362C72.2105 44.6218 71.9153 45.6144 71.9153 45.6144C71.8878 46.8017 70.3362 46.8421 70.3362 46.8421H52.7926C49.1248 46.1948 48.9325 40.8775 48.9325 40.8775C48.9429 35.2533 52.6174 34.2105 52.6174 34.2105H70.1604ZM78.0171 44.5642C78.0434 44.563 78.0697 44.5618 78.0967 44.5606H93.5265C93.5265 44.5606 96.1277 43.6017 95.7768 39.9994C95.7768 39.9994 95.6109 36.8361 93.5265 36.4914H78.2577C78.2577 36.4914 78.1616 36.5239 78.0171 36.5373V44.5642ZM78.0465 34.2105C78.0802 34.2093 78.1144 34.2087 78.15 34.2087C78.1849 34.2087 78.2204 34.2093 78.2577 34.2105H94.3287C94.3287 34.2105 97.694 35.2533 97.7038 40.8775C97.7038 40.8775 97.5287 46.1948 94.1689 46.8421H78.3624H75.6003V34.2105H78.0465ZM54.3717 39.1219C53.2292 39.3203 53.3186 40.1745 53.3186 40.1745C53.3528 41.6012 54.3717 41.5792 54.3717 41.5792H69.9853C70.9111 41.0201 70.687 40.5254 70.687 40.5254C70.9638 39.5206 69.8108 39.1219 69.8108 39.1219H54.3717ZM108.612 44.113C108.612 43.2288 109.4 42.5111 110.369 42.5111C111.339 42.5111 112.124 43.2288 112.124 44.113C112.124 44.9971 111.339 45.7148 110.369 45.7148C109.4 45.7148 108.612 44.9971 108.612 44.113ZM107.911 35.9428C107.911 35.9428 108.915 34.2117 110.359 34.2117C110.946 34.2117 111.605 34.4971 112.3 35.3017L119.497 44.4332L120.023 45.0749C120.023 45.0749 120.492 46.1642 119.672 46.6767C119.672 46.6767 118.62 47.3772 117.742 45.8758L111.423 37.8648C111.423 37.8648 110.133 36.8049 109.14 38.0253L102.646 46.0363C102.646 46.0363 101.789 47.1335 100.891 46.6767C100.891 46.6767 100.033 45.9701 100.891 44.5936L107.911 35.9428ZM126.052 34.2105C126.052 34.2105 122.1 35.1523 123.413 39.9204C123.413 39.9204 124.532 41.821 126.58 41.6514H142.941C142.941 41.6514 144.629 41.3624 144.349 43.2086C144.349 43.2086 144.824 44.5967 142.237 44.4191H125.523C125.523 44.4191 124.353 44.3456 124.293 45.8036C124.293 45.8036 124.238 46.8923 125.7 46.8421H142.941C142.941 46.8421 146.729 46.7 146.46 42.6893C146.46 42.6893 146.399 40.1929 144.173 39.4005H126.755C126.755 39.4005 124.979 39.5677 125.348 37.844C125.348 37.844 125.368 36.6059 126.931 36.4596H144.876C144.876 36.4596 145.684 36.5594 145.755 35.249C145.755 35.249 145.624 34.2313 144.876 34.2105H126.052ZM24.5469 34.2736C24.5469 34.2736 23.6327 34.1885 23.4943 35.8025L23.8451 42.2564C23.8451 42.2564 24.7061 46.8188 27.7052 46.8421H42.6176C42.6176 46.8421 46.3577 46.1801 45.9505 40.0484V35.4633C45.9505 35.4633 45.588 34.164 44.7222 34.2736C44.7222 34.2736 43.6812 34.6949 43.6696 35.8025L43.4945 41.9294C43.4945 41.9294 43.6041 44.3616 41.0385 44.386H28.4063C28.4063 44.386 25.9772 44.601 25.9509 40.728V35.4633C25.9191 34.7604 25.8585 34.213 25.0747 34.213C24.9259 34.213 24.752 34.2319 24.5469 34.2736ZM0.161225 37.9677V45.3204C0.161225 45.3204 0.158776 46.0681 0.493715 46.4636C0.967038 47.0227 1.89654 46.8598 2.15861 46.6271C2.28414 46.5151 2.71582 45.8893 2.65704 45.4839V42.0525C2.65704 42.0525 14.3383 41.5779 15.3027 42.543C15.3027 42.543 18.1059 44.296 19.1297 45.8109C19.1297 45.8109 20.121 46.9033 20.9599 45.6468C20.9599 45.6468 21.4167 44.3536 20.1278 43.5227C20.1278 43.5227 16.9161 39.5793 13.3059 39.4385H2.65704C2.65704 39.4385 2.26883 36.8312 2.98953 36.8245H17.1335C17.1335 36.8245 18.2608 36.8882 18.6306 37.8042C18.6306 37.8042 19.8136 40.1519 20.9599 37.8042C20.9599 37.8042 21.0885 35.0751 17.7985 34.374L2.15861 34.2105C2.15861 34.2105 0.183881 34.7396 0.161225 37.9677Z" fill="#022368"/>
<path d="M146.827 6.66633L138.407 13.509L144.371 14.7361L154.02 7.01718L152.616 0.350858L145.776 0L146.827 6.66633Z" fill="#022368"/>
<path d="M162.09 13.1573L149.459 15.6133L154.02 20.8762L169.283 19.4728L172.967 7.54295L167.353 1.9292L162.09 13.1573Z" fill="#FFB406"/>
<path d="M129.283 7.54269L133.318 9.82358L127.528 17.0165L127.353 17.1916C127.353 17.1916 127.516 17.1249 127.787 17.0134C129.161 16.4483 133.318 14.7356 133.318 14.7356L138.407 8.42014L134.722 5.08667L129.283 7.54269Z" fill="#022368"/>
<path d="M120.336 15.087L116.477 17.8951L119.985 18.2447L119.633 24.5614L124.195 19.8233L124.722 15.087H120.336Z" fill="#022368"/>
<path d="M170.512 34.0346L158.055 27.0161V37.0172L170.336 44.7355L184.897 33.6843L185.249 21.403L170.512 34.0346Z" fill="#022368"/>
<path d="M150.686 55.087L155.248 69.4728L174.371 70L181.914 58.9464L162.09 59.2985L156.827 46.1404L150.686 55.087Z" fill="#022368"/>
<path d="M107.529 61.5776L106.476 72.9814L109.81 76.8409L110.161 65.9636L117.354 65.7891L114.371 61.0516L107.529 61.5776Z" fill="#022368"/>
<path d="M135.95 67.7187L132.266 79.1214L144.021 89.8235L154.721 87.8934L140.862 75.9642L143.845 62.8061L135.95 67.7187Z" fill="#FFB406" stroke="#FFB406" stroke-width="2.36" stroke-miterlimit="22.9256"/>
<path d="M116.301 74.5611L119.633 86.3152L126.301 90.0001L122.091 77.3679L128.582 69.1218L122.616 68.4201L116.301 74.5611Z" fill="#022368"/>
<path d="M3.69412 30.4053L4.76446 30.7452C4.60036 31.3422 4.32726 31.7849 3.94579 32.0751C3.5637 32.3648 3.07936 32.5099 2.49214 32.5099C1.76654 32.5099 1.16892 32.2619 0.701718 31.7653C0.233906 31.2687 0 30.5909 0 29.7306C0 28.82 0.235742 28.1128 0.705392 27.6095C1.17565 27.1055 1.79348 26.8539 2.56011 26.8539C3.22876 26.8539 3.7725 27.0517 4.1901 27.4472C4.43871 27.6805 4.62546 28.0167 4.74976 28.4545L3.65677 28.7153C3.59248 28.4318 3.45716 28.2083 3.25203 28.0436C3.04629 27.8795 2.79708 27.7981 2.50378 27.7981C2.09842 27.7981 1.7696 27.9432 1.51672 28.234C1.26444 28.5249 1.1383 28.9964 1.1383 29.6479C1.1383 30.3398 1.2626 30.8321 1.5112 31.1254C1.75981 31.4193 2.08311 31.5657 2.48112 31.5657C2.77503 31.5657 3.02731 31.4726 3.23856 31.2859C3.44981 31.0991 3.60166 30.8064 3.69412 30.4053ZM10.1584 26.947H8.99069L6.86043 32.4168H8.0318L8.48308 31.1738H10.6697L11.1473 32.4168H12.348L10.1584 26.947ZM8.8223 30.2523L9.56137 28.223L10.3151 30.2523H8.8223ZM15.7458 32.4168V30.1335H15.9699C16.2234 30.1335 16.4089 30.1537 16.5259 30.1947C16.6429 30.2357 16.7531 30.3117 16.8584 30.4225C16.9625 30.5327 17.1566 30.8009 17.4395 31.2265L18.2379 32.4168H19.5587L18.8913 31.3495C18.6274 30.924 18.418 30.6282 18.2631 30.4617C18.1069 30.2951 17.9097 30.142 17.6716 30.0024C18.151 29.9332 18.5117 29.7642 18.7529 29.4973C18.9942 29.2297 19.1148 28.8905 19.1148 28.4802C19.1148 28.1569 19.0358 27.8697 18.8766 27.6187C18.7168 27.3676 18.5049 27.1925 18.2398 27.0945C17.9753 26.9966 17.5509 26.947 16.9655 26.947H14.6418V32.4168H15.7458ZM15.7458 27.8722H16.608C17.0556 27.8722 17.3244 27.8783 17.4138 27.8912C17.5926 27.9205 17.7316 27.9922 17.8295 28.1055C17.9281 28.2187 17.9771 28.3669 17.9771 28.5512C17.9771 28.7153 17.9404 28.8525 17.8657 28.9621C17.791 29.0711 17.6875 29.1482 17.5558 29.1929C17.4236 29.2383 17.0929 29.2603 16.5633 29.2603H15.7458V27.8722ZM25.6691 30.4053V31.0991C25.5025 31.2289 25.3029 31.3385 25.0702 31.4297C24.8375 31.5204 24.6061 31.5657 24.3746 31.5657C23.9068 31.5657 23.529 31.4034 23.2406 31.0789C22.9516 30.7544 22.8077 30.2676 22.8077 29.6185C22.8077 29.0166 22.9497 28.5623 23.2345 28.2561C23.5192 27.9512 23.9031 27.7981 24.3856 27.7981C24.704 27.7981 24.9698 27.8758 25.1823 28.0308C25.3947 28.1863 25.5399 28.3982 25.617 28.667L26.7137 28.4618C26.6047 27.9591 26.3585 27.566 25.9771 27.2807C25.595 26.9959 25.0647 26.8539 24.3856 26.8539C23.8633 26.8539 23.4267 26.9445 23.0759 27.1264C22.616 27.3621 22.2664 27.7019 22.0276 28.1446C21.7888 28.5874 21.6694 29.0937 21.6694 29.6632C21.6694 30.188 21.7765 30.6735 21.9902 31.1199C22.2046 31.5663 22.5236 31.9098 22.9491 32.1498C23.3747 32.3899 23.8731 32.5099 24.4456 32.5099C24.8957 32.5099 25.3402 32.4248 25.7793 32.2539C26.2183 32.0837 26.5532 31.8865 26.7847 31.663V29.4844H24.4046V30.4053H25.6691ZM32.2491 26.947H31.0814L28.9511 32.4168H30.1225L30.5744 31.1738H32.7603L33.2379 32.4168H34.4393L32.2491 26.947ZM30.9136 30.2523L31.652 28.223L32.4058 30.2523H30.9136ZM36.449 30.6368C36.5212 31.2485 36.7429 31.7145 37.1127 32.0341C37.4832 32.3537 38.0147 32.5135 38.706 32.5135C39.1811 32.5135 39.5779 32.4468 39.8963 32.3139C40.2141 32.1804 40.4609 31.9772 40.6348 31.7041C40.8087 31.4304 40.8962 31.1364 40.8962 30.8235C40.8962 30.4776 40.8234 30.1873 40.6776 29.9522C40.5325 29.7171 40.3304 29.5322 40.0733 29.3962C39.8161 29.2609 39.4187 29.1293 38.8817 29.0025C38.3441 28.8758 38.0061 28.7539 37.8665 28.637C37.7569 28.5451 37.7024 28.4343 37.7024 28.3051C37.7024 28.163 37.7612 28.0504 37.8775 27.9652C38.0593 27.8336 38.3104 27.7675 38.6313 27.7675C38.9423 27.7675 39.1756 27.8293 39.3311 27.9524C39.4867 28.0755 39.5877 28.2781 39.6348 28.5586L40.7395 28.5102C40.7217 28.0075 40.5392 27.6058 40.1927 27.3052C39.8461 27.0039 39.3293 26.8539 38.6429 26.8539C38.2222 26.8539 37.8634 26.9169 37.5664 27.0437C37.2688 27.1711 37.0417 27.3554 36.8837 27.5978C36.7257 27.8403 36.6467 28.1012 36.6467 28.3798C36.6467 28.8121 36.8145 29.1795 37.1501 29.4801C37.3889 29.6944 37.804 29.8745 38.3961 30.0214C38.8566 30.1359 39.1511 30.2149 39.2803 30.2602C39.4695 30.3276 39.6018 30.4059 39.6783 30.4972C39.7536 30.5878 39.7916 30.698 39.7916 30.8272C39.7916 31.0287 39.7016 31.2044 39.521 31.355C39.3409 31.5057 39.0727 31.581 38.7176 31.581C38.3814 31.581 38.1151 31.4965 37.9167 31.3275C37.7189 31.1579 37.5879 30.8934 37.5236 30.5321L36.449 30.6368ZM49.7547 32.4168V30.1218L51.7655 26.947H50.4937L49.2324 29.1109L47.9453 26.947H46.6508L48.6543 30.1145V32.4168H49.7547ZM57.427 30.6368C57.4987 31.2485 57.7203 31.7145 58.0908 32.0341C58.4612 32.3537 58.9921 32.5135 59.684 32.5135C60.1586 32.5135 60.5554 32.4468 60.8738 32.3139C61.1922 32.1804 61.439 31.9772 61.6129 31.7041C61.7868 31.4304 61.8737 31.1364 61.8737 30.8235C61.8737 30.4776 61.8008 30.1873 61.6557 29.9522C61.51 29.7171 61.3085 29.5322 61.0513 29.3962C60.7936 29.2609 60.3968 29.1293 59.8592 29.0025C59.3215 28.8758 58.9835 28.7539 58.8439 28.637C58.7349 28.5451 58.6805 28.4343 58.6805 28.3051C58.6805 28.163 58.7386 28.0504 58.8556 27.9652C59.0374 27.8336 59.2885 27.7675 59.6093 27.7675C59.9204 27.7675 60.1531 27.8293 60.3086 27.9524C60.4647 28.0755 60.5658 28.2781 60.6129 28.5586L61.7176 28.5102C61.6998 28.0075 61.5173 27.6058 61.1701 27.3052C60.8236 27.0039 60.3074 26.8539 59.6204 26.8539C59.2003 26.8539 58.8415 26.9169 58.5439 27.0437C58.2469 27.1711 58.0191 27.3554 57.8612 27.5978C57.7032 27.8403 57.6242 28.1012 57.6242 28.3798C57.6242 28.8121 57.792 29.1795 58.1275 29.4801C58.3669 29.6944 58.7821 29.8745 59.3742 30.0214C59.8347 30.1359 60.1292 30.2149 60.2584 30.2602C60.4476 30.3276 60.5799 30.4059 60.6558 30.4972C60.7317 30.5878 60.7691 30.698 60.7691 30.8272C60.7691 31.0287 60.6797 31.2044 60.499 31.355C60.319 31.5057 60.0508 31.581 59.6951 31.581C59.3595 31.581 59.0925 31.4965 58.8948 31.3275C58.697 31.1579 58.5659 30.8934 58.501 30.5321L57.427 30.6368ZM68.6668 32.4168V31.4953H65.6113V30.0061H68.3569V29.0852H65.6113V27.8722H68.5621V26.947H64.5067V32.4168H68.6668ZM72.4148 32.4168V30.1335H72.6389C72.893 30.1335 73.0779 30.1537 73.1949 30.1947C73.3118 30.2357 73.4227 30.3117 73.5274 30.4225C73.6315 30.5327 73.8256 30.8009 74.1085 31.2265L74.9069 32.4168H76.2277L75.5603 31.3495C75.2964 30.924 75.0869 30.6282 74.9314 30.4617C74.7759 30.2951 74.5787 30.142 74.3399 30.0024C74.82 29.9332 75.1806 29.7642 75.4219 29.4973C75.6631 29.2297 75.7838 28.8905 75.7838 28.4802C75.7838 28.1569 75.7048 27.8697 75.5456 27.6187C75.3858 27.3676 75.1739 27.1925 74.9088 27.0945C74.6442 26.9966 74.2199 26.947 73.6351 26.947H71.3108V32.4168H72.4148ZM72.4148 27.8722H73.2769C73.7245 27.8722 73.9933 27.8783 74.0827 27.8912C74.2615 27.9205 74.4005 27.9922 74.4985 28.1055C74.5971 28.2187 74.6461 28.3669 74.6461 28.5512C74.6461 28.7153 74.6087 28.8525 74.534 28.9621C74.4599 29.0711 74.3564 29.1482 74.2248 29.1929C74.0931 29.2383 73.7619 29.2603 73.2322 29.2603H72.4148V27.8722ZM80.9646 32.4168L82.924 26.947H81.752L80.4129 30.995L79.0291 26.947H77.8314L79.7865 32.4168H80.9646ZM85.1572 32.4162H86.2618V26.947H85.1572V32.4162ZM92.5172 30.4053C92.4254 30.8064 92.2735 31.0991 92.0623 31.2859C91.8504 31.4726 91.5981 31.5657 91.3048 31.5657C90.9068 31.5657 90.5835 31.4193 90.3349 31.1254C90.0863 30.8321 89.9614 30.3398 89.9614 29.6479C89.9614 28.9964 90.0882 28.5249 90.3404 28.234C90.5927 27.9432 90.9221 27.7981 91.3275 27.7981C91.6208 27.7981 91.87 27.8795 92.0751 28.0436C92.2803 28.2083 92.4156 28.4318 92.4799 28.7153L93.5735 28.4545C93.4486 28.0167 93.2618 27.6805 93.0138 27.4472C92.5962 27.0517 92.0519 26.8539 91.3832 26.8539C90.6166 26.8539 89.9994 27.1055 89.5291 27.6095C89.0589 28.1128 88.8237 28.82 88.8237 29.7306C88.8237 30.5909 89.057 31.2687 89.5255 31.7653C89.9927 32.2619 90.5897 32.5099 91.3159 32.5099C91.9031 32.5099 92.3874 32.3648 92.7689 32.0751C93.151 31.7849 93.4241 31.3422 93.5882 30.7452L92.5172 30.4053ZM96.2059 32.4162H97.3099V26.947H96.2059V32.4162ZM99.8424 29.7153C99.8424 30.586 100.082 31.2693 100.563 31.7653C101.043 32.2619 101.689 32.5099 102.503 32.5099C103.306 32.5099 103.947 32.2607 104.427 31.7616C104.908 31.2632 105.148 30.5725 105.148 29.6889C105.148 28.7986 104.906 28.1036 104.422 27.604C103.938 27.1037 103.293 26.8539 102.488 26.8539C102.042 26.8539 101.649 26.9261 101.308 27.07C101.052 27.1772 100.817 27.3413 100.602 27.5629C100.386 27.784 100.217 28.0344 100.092 28.3124C99.9257 28.6908 99.8424 29.158 99.8424 29.7153ZM100.981 29.6779C100.981 29.0484 101.12 28.5776 101.398 28.2659C101.677 27.9536 102.044 27.7975 102.499 27.7975C102.954 27.7975 103.319 27.9518 103.594 28.2604C103.868 28.5684 104.006 29.0362 104.006 29.6632C104.006 30.2976 103.865 30.7727 103.582 31.0899C103.3 31.4071 102.939 31.5657 102.499 31.5657C102.058 31.5657 101.695 31.4065 101.409 31.0868C101.123 30.7666 100.981 30.2976 100.981 29.6779ZM107.433 30.6368C107.506 31.2485 107.727 31.7145 108.098 32.0341C108.468 32.3537 108.999 32.5135 109.691 32.5135C110.166 32.5135 110.562 32.4468 110.881 32.3139C111.199 32.1804 111.445 31.9772 111.62 31.7041C111.794 31.4304 111.881 31.1364 111.881 30.8235C111.881 30.4776 111.808 30.1873 111.662 29.9522C111.518 29.7171 111.315 29.5322 111.058 29.3962C110.8 29.2609 110.403 29.1293 109.866 29.0025C109.329 28.8758 108.99 28.7539 108.851 28.637C108.742 28.5451 108.687 28.4343 108.687 28.3051C108.687 28.163 108.746 28.0504 108.863 27.9652C109.044 27.8336 109.295 27.7675 109.616 27.7675C109.927 27.7675 110.16 27.8293 110.316 27.9524C110.471 28.0755 110.572 28.2781 110.62 28.5586L111.724 28.5102C111.707 28.0075 111.524 27.6058 111.178 27.3052C110.831 27.0039 110.314 26.8539 109.627 26.8539C109.207 26.8539 108.848 26.9169 108.551 27.0437C108.254 27.1711 108.026 27.3554 107.868 27.5978C107.71 27.8403 107.631 28.1012 107.631 28.3798C107.631 28.8121 107.8 29.1795 108.135 29.4801C108.374 29.6944 108.789 29.8745 109.381 30.0214C109.841 30.1359 110.136 30.2149 110.265 30.2602C110.455 30.3276 110.586 30.4059 110.663 30.4972C110.739 30.5878 110.776 30.698 110.776 30.8272C110.776 31.0287 110.686 31.2044 110.506 31.355C110.326 31.5057 110.058 31.581 109.702 31.581C109.366 31.581 109.099 31.4965 108.902 31.3275C108.704 31.1579 108.573 30.8934 108.508 30.5321L107.433 30.6368Z" fill="#022368"/>
<path d="M108.933 50.7007C111.14 50.9622 111.037 53.1573 111.037 53.1573V58.0693H109.81V54.3844C109.824 52.0741 108.757 52.2799 108.757 52.2799H103.493C102.638 52.414 102.617 53.3324 102.617 53.3324V58.0693H101.213V52.9816C101.257 50.8728 102.792 50.7007 102.792 50.7007H108.933ZM112.967 50.7007C112.967 50.7007 112.233 50.8813 112.265 51.5782C112.265 51.5782 112.271 52.297 112.792 52.297L117.003 52.2799V58.0289H118.23V52.2799H122.267C122.267 52.2799 122.829 52.2688 122.967 51.5782C122.967 51.5782 123.037 50.8115 122.441 50.7007H112.967ZM37.5291 56.7418C37.5425 56.7412 37.556 56.74 37.5707 56.7394H45.4066C45.4066 56.7394 46.7286 56.1797 46.5492 54.0776C46.5492 54.0776 46.4659 52.2327 45.4066 52.0313H37.6515C37.6515 52.0313 37.6025 52.0502 37.5291 52.0588V56.7418ZM37.5456 50.7007C37.5627 50.7001 37.5793 50.7001 37.5976 50.7001C37.6148 50.7001 37.6332 50.7001 37.6515 50.7007H45.815C45.815 50.7007 47.5246 51.3093 47.5295 54.5895C47.5295 54.5895 47.4401 57.6922 45.7335 58.0693H37.7042H36.3008V50.7007H37.5456ZM58.419 50.7007H49.8545C49.8545 50.7007 48.061 51.3093 48.0555 54.5895C48.0555 54.5895 48.1491 57.6922 49.9402 58.0693H58.5047C58.5047 58.0693 59.2621 58.0455 59.275 57.3523C59.275 57.3523 59.4195 56.7749 58.5047 56.7394H50.2825C50.2825 56.7394 48.8962 56.1797 49.0835 54.0776C49.0835 54.0776 49.1711 52.2327 50.2825 52.0313H58.419C58.419 52.0313 59.0025 52.2493 59.1899 51.52C59.1899 51.52 59.3491 50.7001 58.4753 50.7001C58.4569 50.7001 58.438 50.7001 58.419 50.7007ZM87.3664 50.7007H78.8019C78.8019 50.7007 77.0078 51.3093 77.0029 54.5895C77.0029 54.5895 77.0966 57.6922 78.8876 58.0693H87.4515C87.4515 58.0693 88.2096 58.0455 88.223 57.3523C88.223 57.3523 88.3669 56.7749 87.4515 56.7394H79.2299C79.2299 56.7394 77.843 56.1797 78.0303 54.0776C78.0303 54.0776 78.1185 52.2327 79.2299 52.0313H87.3664C87.3664 52.0313 87.9499 52.2493 88.1373 51.52C88.1373 51.52 88.2965 50.7001 87.4227 50.7001C87.4044 50.7001 87.3854 50.7001 87.3664 50.7007ZM60.3361 51.4024V58.0693H70.3359C70.3359 58.0693 70.8815 58.0289 70.8619 57.0168C70.8619 57.0168 70.7897 56.6261 69.6342 56.6659H61.5645V51.2273C61.5645 51.2273 61.5651 50.5335 61.0385 50.5262C61.0385 50.5262 60.9944 50.5109 60.9289 50.5109C60.7531 50.5109 60.4206 50.618 60.3361 51.4024ZM50.7105 53.6062C50.1527 53.7158 50.1961 54.1903 50.1961 54.1903C50.2127 54.9826 50.7105 54.9704 50.7105 54.9704H58.3332C58.7851 54.66 58.6761 54.3844 58.6761 54.3844C58.8115 53.8272 58.2481 53.6062 58.2481 53.6062H50.7105ZM99.6471 50.7007H91.0826C91.0826 50.7007 89.2885 51.3093 89.283 54.5895C89.283 54.5895 89.3779 57.6922 91.1677 58.0693H99.7328C99.7328 58.0693 100.489 58.0455 100.504 57.3523C100.504 57.3523 100.648 56.7749 99.7328 56.7394H91.5106C91.5106 56.7394 90.1243 56.1797 90.311 54.0776C90.311 54.0776 90.3992 52.2327 91.5106 52.0313H99.6471C99.6471 52.0313 100.231 52.2493 100.418 51.52C100.418 51.52 100.577 50.7001 99.704 50.7001C99.6856 50.7001 99.6667 50.7001 99.6471 50.7007ZM91.9386 53.6062C91.3808 53.7158 91.4248 54.1903 91.4248 54.1903C91.4414 54.9826 91.9386 54.9704 91.9386 54.9704H99.5614C100.014 54.66 99.9036 54.3844 99.9036 54.3844C100.04 53.8272 99.4756 53.6062 99.4756 53.6062H91.9386ZM123.845 52.8928V57.1821C123.845 57.1821 123.844 57.6181 124.007 57.8489C124.238 58.1753 124.691 58.0798 124.818 57.9444C124.879 57.8789 125.09 57.514 125.062 57.2764V55.2753C125.062 55.2753 130.754 54.9986 131.225 55.5613C131.225 55.5613 132.59 56.5845 133.09 57.4674C133.09 57.4674 133.574 58.1061 133.982 57.3725C133.982 57.3725 134.205 56.6182 133.577 56.1332C133.577 56.1332 132.011 53.8327 130.251 53.7507H125.062C125.062 53.7507 124.872 52.2297 125.222 52.226H132.117C132.117 52.226 132.666 52.2627 132.847 52.7985C132.847 52.7985 133.424 54.167 133.982 52.7985C133.982 52.7985 134.045 51.2052 132.442 50.7968L124.818 50.7007C124.818 50.7007 123.856 51.0093 123.845 52.8928ZM141.957 58.0889C142.776 58.0889 143.441 57.424 143.441 56.6041V51.9731C143.441 51.1526 142.776 50.4882 141.957 50.4882H137.326C136.506 50.4882 135.841 51.1526 135.841 51.9731V56.6041C135.841 57.424 136.506 58.0889 137.326 58.0889H141.957ZM141.906 56.5986H137.527V52.0784H141.906V56.5986Z" fill="#022368"/>
</svg>
